<svg id="Capa_1" enable-background="new 0 0 512 512" height="512" viewBox="0 0 512 512" width="512" xmlns="http://www.w3.org/2000/svg"><g><g><path d="m256.184 432.107v-82.857c0-2.144 1.144-4.124 3-5.196l71.757-41.429c1.856-1.072 4.144-1.072 6 0l71.757 41.429c1.856 1.072 3 3.053 3 5.196v82.858c0 2.144-1.144 4.124-3 5.196l-71.757 41.429c-1.856 1.072-4.144 1.072-6 0l-71.757-41.429c-1.857-1.072-3-3.053-3-5.197z" fill="#dff6fd"/><path d="m100.67 432.107v-82.857c0-2.144 1.144-4.124 3-5.196l71.757-41.429c1.856-1.072 4.144-1.072 6 0l71.757 41.429c1.856 1.072 3 3.053 3 5.196v82.858c0 2.144-1.144 4.124-3 5.196l-71.757 41.429c-1.856 1.072-4.144 1.072-6 0l-71.757-41.429c-1.856-1.072-3-3.053-3-5.197z" fill="#dff6fd"/><path d="m333.757 214.571v82.858c0 2.144 1.144 4.124 3 5.196l71.757 41.429c1.856 1.072 4.144 1.072 6 0l71.757-41.429c1.856-1.072 3-3.053 3-5.196v-82.858c0-2.144-1.144-4.124-3-5.196l-71.757-41.429c-1.856-1.072-4.144-1.072-6 0l-71.757 41.429c-1.857 1.072-3 3.053-3 5.196z" fill="#dff6fd"/><path d="m178.243 214.571v82.858c0 2.144 1.144 4.124 3 5.196l71.757 41.429c1.856 1.072 4.144 1.072 6 0l71.757-41.429c1.856-1.072 3-3.053 3-5.196v-82.858c0-2.144-1.144-4.124-3-5.196l-71.757-41.429c-1.856-1.072-4.144-1.072-6 0l-71.757 41.429c-1.856 1.072-3 3.053-3 5.196z" fill="#dff6fd"/><path d="m22.73 214.571v82.858c0 2.144 1.144 4.124 3 5.196l71.757 41.429c1.856 1.072 4.144 1.072 6 0l71.757-41.429c1.856-1.072 3-3.053 3-5.196v-82.858c0-2.144-1.144-4.124-3-5.196l-71.757-41.429c-1.856-1.072-4.144-1.072-6 0l-71.757 41.429c-1.857 1.072-3 3.053-3 5.196z" fill="#dff6fd"/><path d="m100.67 79.893v82.858c0 2.144 1.144 4.124 3 5.196l71.757 41.429c1.856 1.072 4.144 1.072 6 0l71.757-41.429c1.856-1.072 3-3.053 3-5.196v-82.858c0-2.144-1.144-4.124-3-5.196l-71.757-41.429c-1.856-1.072-4.144-1.072-6 0l-71.757 41.428c-1.856 1.072-3 3.053-3 5.197z" fill="#dff6fd"/><path d="m256.184 79.893v82.858c0 2.144 1.144 4.124 3 5.196l71.757 41.429c1.856 1.072 4.144 1.072 6 0l71.757-41.429c1.856-1.072 3-3.053 3-5.196v-82.858c0-2.144-1.144-4.124-3-5.196l-71.758-41.429c-1.856-1.072-4.144-1.072-6 0l-71.757 41.429c-1.856 1.071-2.999 3.052-2.999 5.196z" fill="#dff6fd"/><path d="m281.476 121.321c0-38.557 21.824-72.011 53.79-88.699-1.453-.33-2.999-.121-4.326.645l-71.757 41.429c-1.856 1.072-3 3.053-3 5.196v82.858c0 2.144 1.144 4.124 3 5.196l71.757 41.429c1.327.766 2.873.975 4.326.645-31.965-16.688-53.79-50.142-53.79-88.699z" fill="#c8effe"/><path d="m125.963 121.321c0-38.557 21.824-72.011 53.79-88.699-1.453-.33-2.999-.121-4.326.645l-71.757 41.429c-1.856 1.072-3 3.053-3 5.196v82.858c0 2.144 1.144 4.124 3 5.196l71.757 41.429c1.327.766 2.873.975 4.326.645-31.966-16.688-53.79-50.142-53.79-88.699z" fill="#c8effe"/><path d="m203.536 256c0-38.557 21.824-72.011 53.79-88.699-1.453-.33-2.999-.121-4.326.645l-71.757 41.429c-1.856 1.072-3 3.053-3 5.196v82.858c0 2.144 1.144 4.124 3 5.196l71.757 41.429c1.327.766 2.873.975 4.326.645-31.966-16.688-53.79-50.142-53.79-88.699z" fill="#c8effe"/><path d="m359.049 256c0-38.557 21.824-72.011 53.79-88.699-1.453-.33-2.999-.121-4.326.645l-71.757 41.429c-1.856 1.072-3 3.053-3 5.196v82.858c0 2.144 1.144 4.124 3 5.196l71.757 41.429c1.327.766 2.873.975 4.326.645-31.965-16.688-53.79-50.142-53.79-88.699z" fill="#c8effe"/><path d="m281.476 390.687c0-38.557 21.824-72.011 53.79-88.699-1.453-.33-2.999-.121-4.326.645l-71.757 41.429c-1.856 1.072-3 3.053-3 5.196v82.858c0 2.144 1.144 4.124 3 5.196l71.757 41.429c1.327.766 2.873.975 4.326.645-31.965-16.688-53.79-50.143-53.79-88.699z" fill="#c8effe"/><path d="m125.963 390.687c0-38.557 21.824-72.011 53.79-88.699-1.453-.33-2.999-.121-4.326.645l-71.757 41.429c-1.856 1.072-3 3.053-3 5.196v82.858c0 2.144 1.144 4.124 3 5.196l71.757 41.429c1.327.766 2.873.975 4.326.645-31.966-16.688-53.79-50.143-53.79-88.699z" fill="#c8effe"/><path d="m48.022 256.008c0-38.557 21.824-72.011 53.79-88.699-1.453-.33-2.999-.121-4.326.645l-71.756 41.429c-1.856 1.072-3 3.053-3 5.196v82.858c0 2.144 1.144 4.124 3 5.196l71.757 41.429c1.327.766 2.873.975 4.326.645-31.966-16.688-53.791-50.142-53.791-88.699z" fill="#c8effe"/><g fill="#5f99d7"><circle cx="256.184" cy="76.428" r="15.23"/><circle cx="411.697" cy="76.428" r="15.23"/><circle cx="333.94" cy="31.536" r="15.23"/><circle cx="100.67" cy="76.428" r="15.23"/><circle cx="256.184" cy="76.428" r="15.23"/><circle cx="178.427" cy="31.536" r="15.23"/><circle cx="256.184" cy="435.572" r="15.23"/><circle cx="411.697" cy="435.572" r="15.23"/><circle cx="333.94" cy="480.464" r="15.23"/><circle cx="100.67" cy="435.572" r="15.23"/><circle cx="256.184" cy="435.572" r="15.23"/><circle cx="178.427" cy="480.464" r="15.23"/><circle cx="178.243" cy="211.107" r="15.23"/><circle cx="178.243" cy="300.893" r="15.23"/><circle cx="489.27" cy="211.107" r="15.23"/><circle cx="489.27" cy="300.893" r="15.23"/><circle cx="411.514" cy="345.786" r="15.23"/><circle cx="411.514" cy="166.214" r="15.23"/><circle cx="22.73" cy="211.107" r="15.23"/><circle cx="22.73" cy="300.893" r="15.23"/><circle cx="100.486" cy="345.786" r="15.23"/><circle cx="100.486" cy="166.214" r="15.23"/><circle cx="333.757" cy="211.107" r="15.23"/><circle cx="333.757" cy="300.893" r="15.23"/><circle cx="256" cy="345.786" r="15.23"/><circle cx="256" cy="166.214" r="15.23"/><circle cx="178.243" cy="211.107" r="15.23"/><circle cx="178.243" cy="300.893" r="15.23"/></g></g><g><path d="m496.77 279.44v-46.88c8.859-3.106 15.23-11.547 15.23-21.453 0-12.533-10.196-22.73-22.729-22.73-5.657 0-10.834 2.083-14.816 5.515l-40.612-23.444c.26-1.373.401-2.786.401-4.233 0-9.836-6.281-18.231-15.043-21.389v-46.946c8.857-3.107 15.227-11.547 15.227-21.451 0-12.533-10.196-22.729-22.729-22.729-5.659 0-10.837 2.083-14.82 5.517l-40.609-23.45c.26-1.372.401-2.785.401-4.231 0-12.533-10.196-22.729-22.729-22.729s-22.729 10.196-22.729 22.729c0 1.446.142 2.859.401 4.231l-40.609 23.45c-3.983-3.434-9.161-5.517-14.819-5.517-5.66 0-10.84 2.084-14.823 5.52l-40.607-23.446c.26-1.374.402-2.79.402-4.238 0-12.533-10.196-22.729-22.729-22.729s-22.729 10.196-22.729 22.729c0 1.447.142 2.861.401 4.233l-40.608 23.449c-3.983-3.434-9.161-5.518-14.821-5.518-12.533 0-22.729 10.196-22.729 22.729 0 9.906 6.371 18.346 15.229 21.452v46.819c-8.953 3.053-15.413 11.541-15.413 21.514 0 1.447.142 2.861.401 4.233l-40.612 23.444c-3.982-3.432-9.159-5.515-14.816-5.515-12.536.001-22.732 10.198-22.732 22.731 0 9.906 6.372 18.347 15.23 21.453v46.88c-8.858 3.106-15.23 11.547-15.23 21.453 0 12.533 10.196 22.73 22.729 22.73 5.657 0 10.834-2.083 14.816-5.515l40.612 23.444c-.26 1.373-.401 2.786-.401 4.233 0 9.974 6.46 18.461 15.413 21.514v46.819c-8.858 3.106-15.229 11.547-15.229 21.452 0 12.533 10.196 22.729 22.729 22.729 5.656 0 10.833-2.082 14.815-5.513l40.614 23.445c-.26 1.372-.401 2.786-.401 4.232 0 12.533 10.196 22.729 22.729 22.729s22.729-10.196 22.729-22.729c0-1.449-.142-2.864-.402-4.238l40.607-23.446c3.983 3.436 9.162 5.52 14.823 5.52 5.659 0 10.837-2.083 14.819-5.517l40.609 23.45c-.259 1.372-.401 2.785-.401 4.231 0 12.533 10.196 22.729 22.729 22.729s22.729-10.196 22.729-22.729c0-1.446-.142-2.859-.401-4.231l40.609-23.45c3.983 3.434 9.161 5.517 14.82 5.517 12.533 0 22.729-10.196 22.729-22.729 0-9.905-6.37-18.344-15.227-21.451v-5.94c0-4.143-3.357-7.5-7.5-7.5s-7.5 3.357-7.5 7.5v5.938c-8.86 3.105-15.232 11.547-15.232 21.453 0 1.445.141 2.856.4 4.226l-40.611 23.451c-3.982-3.432-9.159-5.515-14.816-5.515s-10.834 2.083-14.817 5.515l-40.611-23.451c.259-1.371.4-2.782.4-4.227 0-9.907-6.373-18.349-15.233-21.453v-46.94c8.765-3.156 15.05-11.552 15.05-21.391 0-1.414-.136-2.795-.384-4.138l40.666-23.479c3.973 3.396 9.122 5.454 14.746 5.454 5.661 0 10.84-2.085 14.823-5.521l40.605 23.452c-.26 1.372-.401 2.785-.401 4.232 0 9.975 6.461 18.463 15.416 21.515v5.878c0 4.143 3.357 7.5 7.5 7.5s7.5-3.357 7.5-7.5v-6.005c8.761-3.158 15.043-11.552 15.043-21.389 0-1.447-.142-2.861-.401-4.233l40.612-23.444c3.982 3.432 9.159 5.515 14.816 5.515 12.533 0 22.729-10.197 22.729-22.73.002-9.905-6.37-18.346-15.228-21.452zm-30.229 21.453c0 1.447.142 2.86.401 4.232l-40.613 23.445c-3.982-3.432-9.159-5.514-14.815-5.514-5.658 0-10.835 2.083-14.817 5.516l-40.61-23.455c.259-1.37.4-2.78.4-4.224 0-9.905-6.37-18.344-15.227-21.451v-46.883c8.857-3.107 15.227-11.547 15.227-21.451 0-1.444-.141-2.854-.4-4.224l40.61-23.455c3.982 3.433 9.16 5.516 14.817 5.516s10.833-2.082 14.815-5.514l40.613 23.445c-.26 1.372-.401 2.786-.401 4.232 0 9.905 6.371 18.346 15.229 21.452v46.881c-8.858 3.106-15.229 11.546-15.229 21.452zm-155.514 0c0 1.479.147 2.924.418 4.324l-40.557 23.416c-3.992-3.469-9.197-5.577-14.888-5.577-5.624 0-10.774 2.058-14.747 5.454l-40.664-23.485c.247-1.341.383-2.721.383-4.133 0-9.907-6.373-18.348-15.232-21.453v-46.879c8.86-3.105 15.232-11.547 15.232-21.453 0-1.412-.136-2.792-.383-4.133l40.664-23.485c3.973 3.396 9.122 5.454 14.747 5.454 5.691 0 10.896-2.107 14.888-5.577l5.291 3.056c1.182.683 2.471 1.007 3.744 1.007 2.591 0 5.112-1.345 6.501-3.75 2.072-3.587.844-8.174-2.743-10.245l-5.336-3.082c.248-1.343.385-2.726.385-4.14 0-9.839-6.285-18.235-15.05-21.391v-46.94c8.86-3.105 15.233-11.547 15.233-21.453 0-1.445-.141-2.856-.4-4.227l40.611-23.451c3.982 3.432 9.159 5.515 14.817 5.515 5.657 0 10.834-2.082 14.816-5.515l40.611 23.451c-.259 1.37-.4 2.782-.4 4.226 0 9.907 6.373 18.348 15.232 21.453v46.817c-8.955 3.052-15.416 11.541-15.416 21.515 0 1.446.142 2.86.401 4.232l-40.605 23.452c-3.983-3.436-9.163-5.521-14.823-5.521-5.624 0-10.772 2.057-14.745 5.453l-5.011-2.895c-3.582-2.071-8.174-.844-10.245 2.743-2.072 3.586-.844 8.174 2.743 10.245l4.946 2.857c-.271 1.402-.418 2.847-.418 4.326 0 9.907 6.373 18.348 15.232 21.453v46.879c-8.859 3.109-15.232 11.55-15.232 21.457zm-77.573 134.678c0 1.443.141 2.854.4 4.223l-40.615 23.45c-3.982-3.43-9.157-5.511-14.812-5.511-5.657 0-10.834 2.083-14.816 5.515l-40.613-23.444c.26-1.373.402-2.787.402-4.234 0-9.906-6.371-18.346-15.229-21.452v-46.943c8.763-3.157 15.046-11.552 15.046-21.39 0-1.446-.142-2.86-.401-4.232l40.605-23.452c3.983 3.436 9.163 5.521 14.823 5.521 5.693 0 10.9-2.109 14.892-5.58l40.553 23.421c-.271 1.4-.417 2.844-.417 4.323 0 9.972 6.458 18.459 15.409 21.513v46.821c-8.857 3.108-15.227 11.547-15.227 21.451zm-147.783-107.001-40.613-23.445c.26-1.372.401-2.786.401-4.232 0-9.905-6.371-18.346-15.229-21.452v-46.881c8.858-3.106 15.229-11.547 15.229-21.452 0-1.447-.142-2.86-.401-4.232l40.613-23.445c3.982 3.432 9.159 5.514 14.815 5.514 5.658 0 10.835-2.083 14.817-5.516l40.61 23.455c-.259 1.37-.4 2.78-.4 4.224 0 9.905 6.37 18.344 15.227 21.451v46.883c-8.857 3.107-15.227 11.547-15.227 21.451 0 1.444.141 2.854.4 4.224l-40.61 23.455c-3.982-3.433-9.16-5.516-14.817-5.516s-10.833 2.082-14.815 5.514zm37.728-252.141c0-1.444-.141-2.855-.4-4.225l40.612-23.452c3.982 3.432 9.158 5.514 14.815 5.514 5.655 0 10.83-2.081 14.812-5.511l40.615 23.45c-.259 1.37-.4 2.78-.4 4.223 0 9.904 6.37 18.344 15.226 21.451v46.821c-8.951 3.054-15.409 11.541-15.409 21.513 0 1.478.147 2.922.417 4.323l-40.553 23.421c-3.992-3.471-9.198-5.58-14.892-5.58-5.661 0-10.84 2.085-14.823 5.521l-40.605-23.452c.26-1.372.401-2.785.401-4.232 0-9.837-6.283-18.233-15.046-21.39v-46.943c8.859-3.106 15.23-11.547 15.23-21.452zm132.601 97.515c-4.262 0-7.729-3.468-7.729-7.73s3.468-7.729 7.729-7.729 7.729 3.468 7.729 7.729c0 4.263-3.467 7.73-7.729 7.73zm-85.486 126.949c0-4.262 3.468-7.729 7.729-7.729s7.729 3.468 7.729 7.729c0 4.263-3.468 7.73-7.729 7.73s-7.729-3.468-7.729-7.73zm7.729-82.056c-4.262 0-7.729-3.468-7.729-7.729 0-4.263 3.468-7.73 7.729-7.73s7.729 3.468 7.729 7.73c.001 4.261-3.467 7.729-7.729 7.729zm155.514 0c-4.262 0-7.729-3.468-7.729-7.729 0-4.263 3.468-7.73 7.729-7.73s7.729 3.468 7.729 7.73c0 4.261-3.467 7.729-7.729 7.729zm155.514-15.46c4.262 0 7.729 3.468 7.729 7.73s-3.468 7.729-7.729 7.729-7.729-3.468-7.729-7.729c-.001-4.262 3.467-7.73 7.729-7.73zm-77.757-29.433c-4.262 0-7.729-3.468-7.729-7.73s3.468-7.729 7.729-7.729 7.729 3.468 7.729 7.729c0 4.263-3.468 7.73-7.729 7.73zm.183-105.245c4.262 0 7.729 3.468 7.729 7.729s-3.468 7.729-7.729 7.729-7.729-3.468-7.729-7.729 3.468-7.729 7.729-7.729zm-77.757-44.893c4.262 0 7.729 3.468 7.729 7.729 0 4.263-3.468 7.73-7.729 7.73s-7.729-3.468-7.729-7.73 3.468-7.729 7.729-7.729zm-77.756 44.893c4.262 0 7.729 3.468 7.729 7.729s-3.468 7.729-7.729 7.729-7.729-3.468-7.729-7.729 3.467-7.729 7.729-7.729zm-77.757-44.893c4.262 0 7.729 3.468 7.729 7.729 0 4.263-3.468 7.73-7.729 7.73s-7.729-3.468-7.729-7.73c-.001-4.262 3.467-7.729 7.729-7.729zm-77.757 44.893c4.262 0 7.729 3.468 7.729 7.729s-3.468 7.729-7.729 7.729-7.729-3.468-7.729-7.729 3.467-7.729 7.729-7.729zm-.184 89.785c4.262 0 7.729 3.468 7.729 7.729 0 4.263-3.468 7.73-7.729 7.73s-7.729-3.468-7.729-7.73c0-4.261 3.468-7.729 7.729-7.729zm-77.757 44.893c4.262 0 7.729 3.468 7.729 7.73s-3.468 7.729-7.729 7.729-7.729-3.467-7.729-7.729 3.468-7.73 7.729-7.73zm0 105.246c-4.262 0-7.729-3.468-7.729-7.73s3.468-7.729 7.729-7.729 7.729 3.468 7.729 7.729c.001 4.262-3.467 7.73-7.729 7.73zm77.757 29.433c4.262 0 7.729 3.468 7.729 7.73s-3.468 7.729-7.729 7.729-7.729-3.468-7.729-7.729c0-4.263 3.468-7.73 7.729-7.73zm.184 105.245c-4.262 0-7.729-3.468-7.729-7.729s3.468-7.729 7.729-7.729 7.729 3.468 7.729 7.729-3.467 7.729-7.729 7.729zm77.757 44.893c-4.262 0-7.729-3.468-7.729-7.729 0-4.263 3.468-7.73 7.729-7.73s7.729 3.468 7.729 7.73-3.468 7.729-7.729 7.729zm233.27-60.352c4.262 0 7.729 3.468 7.729 7.729s-3.468 7.729-7.729 7.729-7.729-3.468-7.729-7.729 3.468-7.729 7.729-7.729zm-77.757 44.892c4.262 0 7.729 3.468 7.729 7.73s-3.468 7.729-7.729 7.729-7.729-3.468-7.729-7.729c0-4.262 3.468-7.73 7.729-7.73zm-77.756-29.433c-4.262 0-7.729-3.468-7.729-7.729s3.468-7.729 7.729-7.729 7.729 3.468 7.729 7.729-3.468 7.729-7.729 7.729zm-.184-89.785c-4.262 0-7.729-3.468-7.729-7.729 0-4.263 3.468-7.73 7.729-7.73s7.729 3.468 7.729 7.73c0 4.261-3.467 7.729-7.729 7.729zm77.757-44.893c-4.262 0-7.729-3.468-7.729-7.73s3.468-7.729 7.729-7.729 7.729 3.468 7.729 7.729c0 4.262-3.467 7.73-7.729 7.73zm77.757 44.893c-4.262 0-7.729-3.468-7.729-7.729 0-4.263 3.468-7.73 7.729-7.73s7.729 3.468 7.729 7.73c0 4.261-3.468 7.729-7.729 7.729zm77.757-44.893c-4.262 0-7.729-3.468-7.729-7.73s3.468-7.729 7.729-7.729 7.729 3.468 7.729 7.729c0 4.262-3.468 7.73-7.729 7.73z"/></g></g></svg>